<?xml version="1.0" encoding="UTF-8"?>
<svg version="1.1" xmlns="http://www.w3.org/2000/svg" width="559" height="555">
<path d="M0 0 C1.0484761 0.00090637 1.0484761 0.00090637 2.11813354 0.00183105 C71.09166796 0.16274346 138.0868015 25.99938827 188.5 73.1875 C189.91120561 74.42293267 191.32748286 75.65260885 192.75 76.875 C213.60145227 95.05101135 229.59149755 118.50025045 243.5 142.1875 C243.86480469 142.80818359 244.22960937 143.42886719 244.60546875 144.06835938 C263.36116445 176.44169621 274.57689929 214.98440003 277.5 252.1875 C277.58241943 253.21327148 277.58241943 253.21327148 277.66650391 254.25976562 C283.29290626 326.68932277 261.34837405 399.3945725 214.5 455.1875 C211.98154249 458.08551391 209.38923682 460.91248498 206.77734375 463.7265625 C204.74097846 465.92709446 202.76738147 468.16478703 200.8125 470.4375 C195.18493257 476.89342432 189.04527532 482.67409189 182.5 488.1875 C181.96262207 488.64398926 181.42524414 489.10047852 180.87158203 489.57080078 C130.56730339 532.11921282 66.89064182 555.48121337 1 555.375 C0.30101593 555.37439575 -0.39796814 555.3737915 -1.11813354 555.37316895 C-13.00512935 555.34543707 -24.71893724 554.84670818 -36.5 553.1875 C-37.38848633 553.06391113 -38.27697266 552.94032227 -39.19238281 552.81298828 C-64.31110585 549.17865883 -88.12100082 541.98265381 -111.5 532.1875 C-112.30228027 531.85137695 -113.10456055 531.51525391 -113.93115234 531.16894531 C-137.54797371 521.07807411 -159.71016833 506.54344054 -178.93383789 489.56494141 C-180.04813485 488.58491592 -181.17063239 487.61418076 -182.29858398 486.64990234 C-195.00770028 475.72639065 -207.48133079 463.65748242 -217.5 450.1875 C-218.34870975 449.07923667 -219.19768635 447.97117767 -220.046875 446.86328125 C-237.79442354 423.44399918 -251.66561286 397.87173046 -261.5 370.1875 C-261.78568848 369.38957031 -262.07137695 368.59164063 -262.36572266 367.76953125 C-277.42144697 325.00728111 -281.71888263 275.88471101 -273.5 231.1875 C-273.31195801 230.14416504 -273.12391602 229.10083008 -272.93017578 228.02587891 C-268.15767806 202.46245239 -260.03484386 177.50272109 -248.5 154.1875 C-248.16742188 153.49543457 -247.83484375 152.80336914 -247.4921875 152.09033203 C-235.7381643 127.7435389 -219.23968413 105.58606101 -200.5 86.1875 C-199.8198584 85.48012695 -199.1397168 84.77275391 -198.43896484 84.04394531 C-189.52654389 74.81822015 -180.56594481 66.03365637 -170.20654297 58.4453125 C-168.45360856 57.15330705 -166.72810434 55.83005472 -165.00390625 54.5 C-155.01015842 46.87408516 -144.38574453 40.45191621 -133.5 34.1875 C-132.55036377 33.6291748 -132.55036377 33.6291748 -131.58154297 33.05957031 C-92.52784753 10.17697332 -44.9250845 -0.07241763 0 0 Z " fill="#000000" transform="translate(278.5,-0.1875)"/>
<path d="M0 0 C8.58 0 17.16 0 26 0 C25.855625 3.485625 25.71125 6.97125 25.5625 10.5625 C25.57638799 18.71127874 26.70545295 24.00964872 32.43530273 29.98217773 C35.51229507 32.81055276 38.64526153 35.50575947 42 38 C48.83892597 34.73033853 55.34967882 29.76541296 59 23 C60.82861874 15.47778573 60.39976285 7.67413612 60 0 C63.3 0 66.6 0 70 0 C69.89816406 1.48628906 69.79632813 2.97257812 69.69140625 4.50390625 C69.35707105 14.4128382 69.20327389 22.4443693 76.23999023 30.03100586 C80.74645494 34.52071698 80.74645494 34.52071698 86 38 C92.11816103 37.37839247 96.96495678 31.87698421 100.95703125 27.609375 C106.98079841 19.8847179 105.55792287 9.2615197 105 0 C108.3 0 111.6 0 115 0 C114.89816406 1.48628906 114.79632813 2.97257812 114.69140625 4.50390625 C114.10244543 16.98639525 114.10244543 16.98639525 119.40625 27.8671875 C122.97912832 31.59138975 126.86002946 34.92194118 131 38 C137.83892597 34.73033853 144.34967882 29.76541296 148 23 C149.82861874 15.47778573 149.39976285 7.67413612 149 0 C155.6 0 162.2 0 169 0 C168.89816406 1.48628906 168.79632813 2.97257812 168.69140625 4.50390625 C168.10244543 16.98639525 168.10244543 16.98639525 173.40625 27.8671875 C176.97912832 31.59138975 180.86002946 34.92194118 185 38 C192.20656531 34.59222141 199.02945471 28.97524364 203 22 C204.90041457 14.81011899 204.46570792 7.3581851 204 0 C206.97 0 209.94 0 213 0 C212.82984375 2.10375 212.82984375 2.10375 212.65625 4.25 C212.13036174 16.47567872 212.13036174 16.47567872 217.62890625 27.0234375 C221.47043791 31.01058678 225.61603169 34.62159659 230 38 C236.83892597 34.73033853 243.34967882 29.76541296 247 23 C248.82861874 15.47778573 248.39976285 7.67413612 248 0 C251.3 0 254.6 0 258 0 C257.89816406 1.48628906 257.79632813 2.97257812 257.69140625 4.50390625 C257.35707105 14.4128382 257.20327389 22.4443693 264.23999023 30.03100586 C268.74645494 34.52071698 268.74645494 34.52071698 274 38 C280.11816103 37.37839247 284.96495678 31.87698421 288.95703125 27.609375 C295.09154989 19.74269428 293.33115974 9.38285935 293 0 C301.58 0 310.16 0 319 0 C319 105.27 319 210.54 319 319 C310.42 319 301.84 319 293 319 C293.165 316.195 293.33 313.39 293.5 310.5 C293.51134915 302.83264855 291.53696221 298.44451186 286.20703125 292.94140625 C282.8996775 289.8389832 279.53554076 286.8404336 276 284 C275.5570459 284.38454346 275.1140918 284.76908691 274.65771484 285.1652832 C271.87602566 287.56710891 269.11677143 289.91330606 266.1640625 292.10546875 C261.57232546 295.87069312 258.88279041 298.90531319 258.140625 304.87109375 C257.80472856 309.59171715 257.83497151 314.27241903 258 319 C254.7 319 251.4 319 248 319 C248.10183594 317.73027344 248.20367187 316.46054687 248.30859375 315.15234375 C248.612761 307.33090026 248.83813046 300.58212753 243.59375 294.33203125 C239.98538227 290.59167654 236.09961317 287.19144774 232 284 C224.84444171 287.35725456 218.10271893 293.22217251 214 300 C212.16778723 306.20642525 212.523286 312.61203235 213 319 C210.03 319 207.06 319 204 319 C204.17015625 317.22109375 204.17015625 317.22109375 204.34375 315.40625 C204.72002422 307.57600783 204.65813567 301.36389222 199.37109375 295.17578125 C195.49300836 291.17169308 191.34428402 287.4901734 187 284 C180.2330248 287.21048139 173.76916185 292.43978697 170 299 C168.1949365 305.66202608 168.76568695 312.11119646 169 319 C162.4 319 155.8 319 149 319 C149.144375 316.009375 149.28875 313.01875 149.4375 309.9375 C149.42248405 302.32628915 147.88475788 297.74341771 142.56469727 292.22875977 C139.47504655 289.35470731 136.33023047 286.59250228 133 284 C126.2330248 287.21048139 119.76916185 292.43978697 116 299 C114.22997853 305.53269496 114.59270345 312.30297632 115 319 C111.7 319 108.4 319 105 319 C105.17015625 317.22109375 105.17015625 317.22109375 105.34375 315.40625 C105.72002422 307.57600783 105.65813567 301.36389222 100.37109375 295.17578125 C96.49300836 291.17169308 92.34428402 287.4901734 88 284 C87.5570459 284.38454346 87.1140918 284.76908691 86.65771484 285.1652832 C83.87602566 287.56710891 81.11677143 289.91330606 78.1640625 292.10546875 C73.57232546 295.87069312 70.88279041 298.90531319 70.140625 304.87109375 C69.80472856 309.59171715 69.83497151 314.27241903 70 319 C66.7 319 63.4 319 60 319 C60.10183594 317.73027344 60.20367187 316.46054687 60.30859375 315.15234375 C60.612761 307.33090026 60.83813046 300.58212753 55.59375 294.33203125 C51.98538227 290.59167654 48.09961317 287.19144774 44 284 C36.84444171 287.35725456 30.10271893 293.22217251 26 300 C24.12108603 306.3646206 24.71172228 312.36961249 25 319 C16.75 319 8.5 319 0 319 C0 213.73 0 108.46 0 0 Z " fill="#F5F5F5" transform="translate(120,118)"/>
<path d="M0 0 C1.74354467 1.77252325 3.26827195 3.68872755 4.84352112 5.61195374 C6.90570669 8.03083367 6.90570669 8.03083367 9.30259705 9.8110199 C13.92800985 13.54849548 16.43503293 16.65167744 17.13382816 22.69804478 C17.38740178 26.52138651 17.44016227 30.32936083 17.44140625 34.16015625 C17.46530515 35.83534517 17.49080182 37.51051197 17.51780701 39.18565369 C17.56251592 42.69036081 17.57140745 46.19305447 17.55786133 49.69799805 C17.54819951 53.26523801 17.59651849 56.82370727 17.70141602 60.3894043 C18.65284147 93.04951719 18.65284147 93.04951719 10.16404724 102.3768158 C6.97850668 105.27372498 3.71103545 107.81328478 0 110 C-8.07575307 106.06001559 -14.9255917 101.26696786 -19 93 C-21.58144471 82.34076747 -21.25680596 71.23300899 -21.06542969 60.33154297 C-20.99118526 55.99688866 -21.06251586 51.67846268 -21.17134094 47.34506607 C-21.79860898 18.1780123 -21.79860898 18.1780123 -12.87231445 8.32223511 C-3.91878503 0 -3.91878503 0 0 0 Z " fill="#030303" transform="translate(352,224)"/>
<path d="M0 0 C8.07575307 3.93998441 14.9255917 8.73303214 19 17 C21.58144471 27.65923253 21.25680596 38.76699101 21.06542969 49.66845703 C20.99118524 54.0031123 21.0624952 58.32153711 21.17137146 62.65493393 C21.79852377 91.83273139 21.79852377 91.83273139 12.7746582 101.67776489 C9.3875172 104.79021114 5.90167515 107.56137515 2 110 C-5.79163424 106.16186101 -12.20732192 102.08828643 -16 94 C-18.42679571 83.16862822 -18.06896224 71.91059934 -17.88012695 60.86987305 C-17.80594739 56.45003303 -17.86352454 52.043072 -17.95552254 47.6239872 C-18.48408835 17.8192201 -18.48408835 17.8192201 -10.55241394 9.10569763 C-7.53549723 6.39337274 -4.41765016 4.1864001 -1 2 C-0.67 1.34 -0.34 0.68 0 0 Z " fill="#030303" transform="translate(251,224)"/>
<path d="M0 0 C1.74354467 1.77252325 3.26827195 3.68872755 4.84352112 5.61195374 C6.90570669 8.03083367 6.90570669 8.03083367 9.30259705 9.8110199 C13.92800985 13.54849548 16.43503293 16.65167744 17.13382816 22.69804478 C17.38740178 26.52138651 17.44016227 30.32936083 17.44140625 34.16015625 C17.46530515 35.83534517 17.49080182 37.51051197 17.51780701 39.18565369 C17.56251592 42.69036081 17.57140745 46.19305447 17.55786133 49.69799805 C17.54819951 53.26523801 17.59651849 56.82370727 17.70141602 60.3894043 C18.65284147 93.04951719 18.65284147 93.04951719 10.16404724 102.3768158 C6.97850668 105.27372498 3.71103545 107.81328478 0 110 C-8.07575307 106.06001559 -14.9255917 101.26696786 -19 93 C-21.58144471 82.34076747 -21.25680596 71.23300899 -21.06542969 60.33154297 C-20.99118526 55.99688866 -21.06251586 51.67846268 -21.17134094 47.34506607 C-21.79860898 18.1780123 -21.79860898 18.1780123 -12.87231445 8.32223511 C-3.91878503 0 -3.91878503 0 0 0 Z " fill="#030303" transform="translate(164,224)"/>
<path d="M0 0 C1.59255581 1.30943477 3.17431625 2.63308722 4.71746826 4.00039673 C6.38864637 5.46442598 8.10916381 6.87264763 9.85528564 8.24642944 C15.66169378 13.23776008 18.89724712 17.02194506 19.51855469 24.95556641 C19.67260284 28.00743214 19.68567513 31.0463877 19.671875 34.1015625 C19.69459416 35.74908705 19.71964463 37.39658091 19.74688721 39.04403687 C19.78996877 42.48591209 19.79074473 45.92469082 19.76367188 49.36669922 C19.7404344 52.86564471 19.78178259 56.35363873 19.88671875 59.85107422 C20.83969098 91.82120249 20.83969098 91.82120249 11.79278564 101.69589233 C8.40048986 104.80629409 4.9111679 107.57189252 1 110 C-0.59255581 108.69056523 -2.17431625 107.36691278 -3.71746826 105.99960327 C-5.38864637 104.53557402 -7.10916381 103.12735237 -8.85528564 101.75357056 C-14.66169378 96.76223992 -17.89724712 92.97805494 -18.51855469 85.04443359 C-18.67260284 81.99256786 -18.68567513 78.9536123 -18.671875 75.8984375 C-18.69459416 74.25091295 -18.71964463 72.60341909 -18.74688721 70.95596313 C-18.78996877 67.51408791 -18.79074473 64.07530918 -18.76367188 60.63330078 C-18.7404344 57.13435529 -18.78178259 53.64636127 -18.88671875 50.14892578 C-19.83969098 18.17879751 -19.83969098 18.17879751 -10.79278564 8.30410767 C-7.40048986 5.19370591 -3.9111679 2.42810748 0 0 Z " fill="#000000" transform="translate(395,224)"/>
<path d="M0 0 C1.59255581 1.30943477 3.17431625 2.63308722 4.71746826 4.00039673 C6.38864637 5.46442598 8.10916381 6.87264763 9.85528564 8.24642944 C15.66169378 13.23776008 18.89724712 17.02194506 19.51855469 24.95556641 C19.67260284 28.00743214 19.68567513 31.0463877 19.671875 34.1015625 C19.69459416 35.74908705 19.71964463 37.39658091 19.74688721 39.04403687 C19.78996877 42.48591209 19.79074473 45.92469082 19.76367188 49.36669922 C19.7404344 52.86564471 19.78178259 56.35363873 19.88671875 59.85107422 C20.83969098 91.82120249 20.83969098 91.82120249 11.79278564 101.69589233 C8.40048986 104.80629409 4.9111679 107.57189252 1 110 C-0.59255581 108.69056523 -2.17431625 107.36691278 -3.71746826 105.99960327 C-5.38864637 104.53557402 -7.10916381 103.12735237 -8.85528564 101.75357056 C-14.66169378 96.76223992 -17.89724712 92.97805494 -18.51855469 85.04443359 C-18.67260284 81.99256786 -18.68567513 78.9536123 -18.671875 75.8984375 C-18.69459416 74.25091295 -18.71964463 72.60341909 -18.74688721 70.95596313 C-18.78996877 67.51408791 -18.79074473 64.07530918 -18.76367188 60.63330078 C-18.7404344 57.13435529 -18.78178259 53.64636127 -18.88671875 50.14892578 C-19.83969098 18.17879751 -19.83969098 18.17879751 -10.79278564 8.30410767 C-7.40048986 5.19370591 -3.9111679 2.42810748 0 0 Z " fill="#000000" transform="translate(207,224)"/>
<path d="M0 0 C1.59621749 1.31244549 3.18147348 2.63929384 4.72845459 4.00942993 C6.36376024 5.44245895 8.04649108 6.82200795 9.75640869 8.16513062 C15.56652504 13.16541012 18.91751384 17.00335179 19.51855469 24.95556641 C19.67168616 28.00747013 19.68567515 31.04638377 19.671875 34.1015625 C19.69459416 35.74908705 19.71964463 37.39658091 19.74688721 39.04403687 C19.78996877 42.48591209 19.79074473 45.92469082 19.76367188 49.36669922 C19.7404344 52.86564471 19.78178259 56.35363873 19.88671875 59.85107422 C20.83901031 91.81096884 20.83901031 91.81096884 11.89044189 101.69589233 C2.93682974 110 2.93682974 110 -1 110 C-2.74180693 108.22924337 -4.26552468 106.31486064 -5.84008789 104.39428711 C-7.91401351 101.96592775 -7.91401351 101.96592775 -10.33349609 100.1328125 C-14.26445847 96.91635037 -16.68348598 94.53943322 -17.72729492 89.46264648 C-17.88442972 85.41636214 -17.79008829 81.47540289 -17.5625 77.4375 C-17.51726704 76.03333264 -17.4762179 74.62902397 -17.43945312 73.22460938 C-17.33393172 69.81275055 -17.18642521 66.40823521 -17 63 C-9.8125 62.6875 -9.8125 62.6875 -7.57739258 62.61206055 C-3.29121852 62.37416486 -0.31918248 61.77536162 3 59 C4.13392625 56.0397983 4.20514285 53.15122219 4 50 C2.93190172 47.4595774 2.93190172 47.4595774 1 46 C-2.56086658 44.81304447 -5.97331024 44.64904582 -9.6875 44.4375 C-10.38939453 44.39431641 -11.09128906 44.35113281 -11.81445312 44.30664062 C-13.54275206 44.2008264 -15.2713511 44.09993419 -17 44 C-19.71253404 21.79158779 -19.71253404 21.79158779 -15.33154297 14.05273438 C-10.93382298 8.58677929 -5.66548725 4.10996001 0 0 Z " fill="#020202" transform="translate(306,224)"/>
<path d="M0 0 C7.04525641 3.04289958 14.56244175 10.96158498 17.93701172 17.77832031 C19.40640891 22.36579529 19.08993142 26.58898672 16.98632812 30.85791016 C12.85002122 36.72892173 7.2494299 43.21901304 0.98632812 46.85791016 C-5.4206591 46.40581673 -10.6674358 39.50504784 -14.75195312 35.09619141 C-17.99945065 31.1961718 -19.40627111 28.48636877 -19.95117188 23.42041016 C-18.97546846 13.52698732 -10.98227592 7.2690701 -3.93652344 0.97509766 C-2.01367188 -0.14208984 -2.01367188 -0.14208984 0 0 Z " fill="#050505" transform="translate(208.013671875,344.14208984375)"/>
<path d="M0 0 C0.43642822 0.37584229 0.87285645 0.75168457 1.32250977 1.13891602 C2.21667603 1.90739868 2.21667603 1.90739868 3.12890625 2.69140625 C3.76844238 3.24199707 4.40797852 3.79258789 5.06689453 4.35986328 C6.71571899 5.75880275 8.39947606 7.1163962 10.08984375 8.46484375 C14.40723719 12.21369155 17.49884895 15.06500012 18.984375 20.80078125 C19.23788668 25.72963333 19.36257575 30.01614619 16.4921875 34.1953125 C14.43021574 35.99014622 12.25485572 37.45603475 10 39 C8.30239449 40.61390231 6.63541866 42.26061272 5 43.9375 C4.236875 44.70964844 3.47375 45.48179687 2.6875 46.27734375 C2.130625 46.84582031 1.57375 47.41429687 1 48 C-7.21542672 44.18119806 -15.05248854 36.72032493 -18.51171875 28.3359375 C-19.16902826 22.70357891 -18.62978351 19.1831647 -15.27001953 14.68261719 C-10.593135 9.34224498 -5.41032388 4.58506327 0 0 Z " fill="#040404" transform="translate(395,343)"/>
<path d="M0 0 C8.43752499 3.87670067 16.78027026 12.06604628 20.578125 20.5078125 C21.25342042 25.8976704 20.51210001 29.02473422 17.265625 33.265625 C12.56367898 38.59449715 7.3898143 43.37750908 2 48 C1.56357178 47.62415771 1.12714355 47.24831543 0.67749023 46.86108398 C-0.21667603 46.09260132 -0.21667603 46.09260132 -1.12890625 45.30859375 C-1.76844238 44.75800293 -2.40797852 44.20741211 -3.06689453 43.64013672 C-4.71571899 42.24119725 -6.39947606 40.8836038 -8.08984375 39.53515625 C-13.37702563 34.94422878 -16.85980496 31.07782314 -17.6875 23.8125 C-17.09095168 14.30684486 -10.26717 9.00038473 -3.5 2.97265625 C-2.33807162 1.97621887 -1.17323901 0.98309472 0 0 Z " fill="#040404" transform="translate(305,167)"/>
<path d="M0 0 C7.65229635 3.31354966 15.21054439 11.90854906 18.56445312 19.37182617 C19.24029771 24.75980941 18.49722132 27.88641811 15.25195312 32.12573242 C10.55000711 37.45460458 5.37614242 42.2376165 -0.01367188 46.86010742 C-8.21641414 43.04720164 -16.12967341 35.58007184 -19.49023438 27.16088867 C-20.08449371 21.67855503 -19.58280642 18.09795726 -16.44628906 13.62475586 C-4.87426546 -0.33862198 -4.87426546 -0.33862198 0 0 Z " fill="#040404" transform="translate(307.013671875,344.139892578125)"/>
<path d="M0 0 C8.20274227 3.81290579 16.11600153 11.28003558 19.4765625 19.69921875 C20.07082183 25.18155239 19.56913455 28.76215017 16.43261719 33.23535156 C12.33539212 38.17926661 7.5977634 43.74766819 2 47 C-4.41347425 46.55444705 -9.64862988 39.57740846 -13.734375 35.16796875 C-16.69932688 31.63714298 -18.41336525 28.80178262 -19 24.125 C-17.94429001 13.66387374 -7.49440369 6.42745949 0 0 Z " fill="#040404" transform="translate(350,167)"/>
<path d="M0 0 C8.41848927 3.86795453 16.85174581 12.06717329 20.54296875 20.54296875 C21.13398561 25.62805438 20.45702133 28.97583119 17.42822266 33.18359375 C13.30252824 38.12302835 8.58825643 43.70707236 3 47 C-3.40374014 46.55512329 -8.65719221 39.64343717 -12.73828125 35.23828125 C-15.98577877 31.33826164 -17.39259923 28.62845862 -17.9375 23.5625 C-16.94852252 13.07267141 -7.61554746 6.38131229 0 0 Z " fill="#040404" transform="translate(251,167)"/>
<path d="M0 0 C8.20274227 3.81290579 16.11600153 11.28003558 19.4765625 19.69921875 C20.07082183 25.18155239 19.56913455 28.76215017 16.43261719 33.23535156 C12.33539212 38.17926661 7.5977634 43.74766819 2 47 C-4.41347425 46.55444705 -9.64862988 39.57740846 -13.734375 35.16796875 C-16.69932688 31.63714298 -18.41336525 28.80178262 -19 24.125 C-17.94429001 13.66387374 -7.49440369 6.42745949 0 0 Z " fill="#040404" transform="translate(162,167)"/>
<path d="M0 0 C8.20274227 3.81290579 16.11600153 11.28003558 19.4765625 19.69921875 C20.07367957 25.20791642 19.62789693 28.78611862 16.36816406 33.21923828 C11.98891926 38.25870863 7.11182705 42.71663561 2 47 C-5.52989719 43.54031751 -14.58022916 35.77984478 -17.82177734 28.03710938 C-18.81062416 23.77442234 -18.38944322 20.09938783 -17 16 C-15.32747262 13.67990433 -13.72058855 12.29779434 -11.37890625 10.6640625 C-8.59756025 8.71849042 -6.36987432 6.48871048 -4 4.0625 C-3.236875 3.29035156 -2.47375 2.51820313 -1.6875 1.72265625 C-1.130625 1.15417969 -0.57375 0.58570313 0 0 Z " fill="#020202" transform="translate(350,344)"/>
<path d="M0 0 C2.91346593 1.31307249 4.9450979 2.71181588 7.1640625 5.00390625 C8.01097656 5.86725586 8.01097656 5.86725586 8.875 6.74804688 C9.4525 7.34681641 10.03 7.94558594 10.625 8.5625 C11.78160151 9.75349384 12.94035778 10.94240005 14.1015625 12.12890625 C14.61025879 12.65556885 15.11895508 13.18223145 15.64306641 13.72485352 C16.99400105 15.1164217 16.99400105 15.1164217 19 16 C20.15743256 20.77346368 20.72456691 25.33247899 19 30 C14.33764551 36.51528906 8.05379986 41.80805212 2 47 C-6.20274227 43.18709421 -14.11600153 35.71996442 -17.4765625 27.30078125 C-18.07367957 21.79208358 -17.62789693 18.21388138 -14.36816406 13.78076172 C-9.98891926 8.74129137 -5.11182705 4.28336439 0 0 Z " fill="#020202" transform="translate(251,344)"/>
<path d="M0 0 C8.20274227 3.81290579 16.11600153 11.28003558 19.4765625 19.69921875 C20.07367957 25.20791642 19.62789693 28.78611862 16.36816406 33.21923828 C11.98891926 38.25870863 7.11182705 42.71663561 2 47 C-5.52989719 43.54031751 -14.58022916 35.77984478 -17.82177734 28.03710938 C-18.81062416 23.77442234 -18.38944322 20.09938783 -17 16 C-15.32747262 13.67990433 -13.72058855 12.29779434 -11.37890625 10.6640625 C-8.59756025 8.71849042 -6.36987432 6.48871048 -4 4.0625 C-3.236875 3.29035156 -2.47375 2.51820313 -1.6875 1.72265625 C-1.130625 1.15417969 -0.57375 0.58570313 0 0 Z " fill="#020202" transform="translate(162,344)"/>
<path d="M0 0 C0.43642822 0.37511719 0.87285645 0.75023437 1.32250977 1.13671875 C1.91862061 1.64847656 2.51473145 2.16023437 3.12890625 2.6875 C3.76844238 3.23792969 4.40797852 3.78835937 5.06689453 4.35546875 C6.72024311 5.76200525 8.40233633 7.13463369 10.08984375 8.5 C15.09830167 12.8970001 18.8380101 16.72559812 19.75 23.625 C19.12046777 33.06798342 11.35141294 38.77847717 4.71875 44.7734375 C3.4836036 45.85405088 2.24573706 46.93161286 1 48 C0.56357178 47.62488281 0.12714355 47.24976563 -0.32250977 46.86328125 C-1.21667603 46.09564453 -1.21667603 46.09564453 -2.12890625 45.3125 C-2.76844238 44.76207031 -3.40797852 44.21164063 -4.06689453 43.64453125 C-5.72024311 42.23799475 -7.40233633 40.86536631 -9.08984375 39.5 C-14.09830167 35.1029999 -17.8380101 31.27440188 -18.75 24.375 C-18.12046777 14.93201658 -10.35141294 9.22152283 -3.71875 3.2265625 C-2.4836036 2.14594912 -1.24573706 1.06838714 0 0 Z " fill="#010101" transform="translate(395,167)"/>
<path d="M0 0 C0.43642822 0.37511719 0.87285645 0.75023437 1.32250977 1.13671875 C1.91862061 1.64847656 2.51473145 2.16023437 3.12890625 2.6875 C3.76844238 3.23792969 4.40797852 3.78835937 5.06689453 4.35546875 C6.72024311 5.76200525 8.40233633 7.13463369 10.08984375 8.5 C15.09830167 12.8970001 18.8380101 16.72559812 19.75 23.625 C19.12046777 33.06798342 11.35141294 38.77847717 4.71875 44.7734375 C3.4836036 45.85405088 2.24573706 46.93161286 1 48 C0.56357178 47.62488281 0.12714355 47.24976563 -0.32250977 46.86328125 C-1.21667603 46.09564453 -1.21667603 46.09564453 -2.12890625 45.3125 C-2.76844238 44.76207031 -3.40797852 44.21164063 -4.06689453 43.64453125 C-5.72024311 42.23799475 -7.40233633 40.86536631 -9.08984375 39.5 C-14.09830167 35.1029999 -17.8380101 31.27440188 -18.75 24.375 C-18.12046777 14.93201658 -10.35141294 9.22152283 -3.71875 3.2265625 C-2.4836036 2.14594912 -1.24573706 1.06838714 0 0 Z " fill="#010101" transform="translate(207,167)"/>
<path d="M0 0 C0.33 0 0.66 0 1 0 C1 8.91 1 17.82 1 27 C5.71184538 26.88203301 5.71184538 26.88203301 10.42260742 26.72973633 C14.83935173 26.67426608 17.52119467 27.27164994 21 30 C23.17240606 33.25860909 23.23564158 33.82050803 22.8125 37.5 C22.73644531 38.2734375 22.66039062 39.046875 22.58203125 39.84375 C21.89032726 42.40630437 21.0747904 43.3758204 19 45 C13.29912287 46.90029238 7.00925213 46 1 46 C1 55.9 1 65.8 1 76 C0.67 76 0.34 76 0 76 C0 50.92 0 25.84 0 0 Z " fill="#EFEFEF" transform="translate(288,241)"/>
<path d="M0 0 C4.61586002 3.95645145 8.80181 7.69941512 13 12 C11.41379873 15.87939509 8.90079013 18.33361087 5.9375 21.25 C5.03902344 22.14203125 4.14054687 23.0340625 3.21484375 23.953125 C1 26 1 26 0 26 C0 17.42 0 8.84 0 0 Z " fill="#131313" transform="translate(333,383)"/>
<path d="M0 0 C0 8.58 0 17.16 0 26 C-4.61586002 22.04354855 -8.80181 18.30058488 -13 14 C-11.41379873 10.12060491 -8.90079013 7.66638913 -5.9375 4.75 C-5.03902344 3.85796875 -4.14054687 2.9659375 -3.21484375 2.046875 C-1 0 -1 0 0 0 Z " fill="#131313" transform="translate(324,383)"/>
<path d="M0 0 C0 8.58 0 17.16 0 26 C-4.61586002 22.04354855 -8.80181 18.30058488 -13 14 C-11.41379873 10.12060491 -8.90079013 7.66638913 -5.9375 4.75 C-5.03902344 3.85796875 -4.14054687 2.9659375 -3.21484375 2.046875 C-1 0 -1 0 0 0 Z " fill="#141414" transform="translate(270,383)"/>
<path d="M0 0 C4.61586002 3.95645145 8.80181 7.69941512 13 12 C11.41379873 15.87939509 8.90079013 18.33361087 5.9375 21.25 C5.03902344 22.14203125 4.14054688 23.0340625 3.21484375 23.953125 C1 26 1 26 0 26 C0 17.42 0 8.84 0 0 Z " fill="#141414" transform="translate(145,383)"/>
<path d="M0 0 C4.61586002 3.95645145 8.80181 7.69941512 13 12 C11.41379873 15.87939509 8.90079013 18.33361087 5.9375 21.25 C5.03902344 22.14203125 4.14054687 23.0340625 3.21484375 23.953125 C1 26 1 26 0 26 C0 17.42 0 8.84 0 0 Z " fill="#131313" transform="translate(333,149)"/>
<path d="M0 0 C0 8.58 0 17.16 0 26 C-4.61586002 22.04354855 -8.80181 18.30058488 -13 14 C-11.41379873 10.12060491 -8.90079013 7.66638913 -5.9375 4.75 C-5.03902344 3.85796875 -4.14054687 2.9659375 -3.21484375 2.046875 C-1 0 -1 0 0 0 Z " fill="#131313" transform="translate(324,149)"/>
<path d="M0 0 C0 8.58 0 17.16 0 26 C-4.61586002 22.04354855 -8.80181 18.30058488 -13 14 C-11.41379873 10.12060491 -8.90079013 7.66638913 -5.9375 4.75 C-5.03902344 3.85796875 -4.14054687 2.9659375 -3.21484375 2.046875 C-1 0 -1 0 0 0 Z " fill="#141414" transform="translate(270,149)"/>
<path d="M0 0 C4.61586002 3.95645145 8.80181 7.69941512 13 12 C11.41379873 15.87939509 8.90079013 18.33361087 5.9375 21.25 C5.03902344 22.14203125 4.14054688 23.0340625 3.21484375 23.953125 C1 26 1 26 0 26 C0 17.42 0 8.84 0 0 Z " fill="#141414" transform="translate(145,149)"/>
<path d="M0 0 C4.61586002 3.95645145 8.80181 7.69941512 13 12 C11.46781315 15.63061667 9.2816856 17.9863773 6.5 20.75 C5.7059375 21.54921875 4.911875 22.3484375 4.09375 23.171875 C2 25 2 25 0 25 C0 16.75 0 8.5 0 0 Z " fill="#131313" transform="translate(333,326)"/>
<path d="M0 0 C0 8.25 0 16.5 0 25 C-3.84281736 23.07859132 -5.80431927 21.4073184 -8.75 18.375 C-9.54921875 17.55773437 -10.3484375 16.74046875 -11.171875 15.8984375 C-11.77515625 15.27195312 -12.3784375 14.64546875 -13 14 C-11.41379873 10.12060491 -8.90079013 7.66638913 -5.9375 4.75 C-5.03902344 3.85796875 -4.14054687 2.9659375 -3.21484375 2.046875 C-1 0 -1 0 0 0 Z " fill="#151515" transform="translate(270,326)"/>
<path d="M0 0 C4.61586002 3.95645145 8.80181 7.69941512 13 12 C11.46781315 15.63061667 9.2816856 17.9863773 6.5 20.75 C5.7059375 21.54921875 4.911875 22.3484375 4.09375 23.171875 C2 25 2 25 0 25 C0 16.75 0 8.5 0 0 Z " fill="#141414" transform="translate(145,326)"/>
<path d="M0 0 C0.66 0 1.32 0 2 0 C2 8.25 2 16.5 2 25 C-7.03225806 17.25806452 -7.03225806 17.25806452 -11 13 C-11 12.34 -11 11.68 -11 11 C-9.35546875 9.4140625 -9.35546875 9.4140625 -7.1875 7.625 C-4.93749143 5.76433718 -3.09649715 4.13127297 -1.36328125 1.7734375 C-0.68845703 0.89558594 -0.68845703 0.89558594 0 0 Z " fill="#0B0B0B" transform="translate(411,384)"/>
<path d="M0 0 C0 8.25 0 16.5 0 25 C-0.66 25 -1.32 25 -2 25 C-3.5859375 23.35546875 -3.5859375 23.35546875 -5.375 21.1875 C-7.7171919 18.35520187 -9.98186585 16.10737561 -13 14 C-11.41379873 10.12060491 -8.90079013 7.66638913 -5.9375 4.75 C-5.03902344 3.85796875 -4.14054687 2.9659375 -3.21484375 2.046875 C-1 0 -1 0 0 0 Z " fill="#0D0D0D" transform="translate(324,326)"/>
<path d="M0 0 C0.66 0 1.32 0 2 0 C2 8.25 2 16.5 2 25 C0 25 0 25 -1.5859375 23.42578125 C-2.17632812 22.72839844 -2.76671875 22.03101563 -3.375 21.3125 C-3.96023438 20.62800781 -4.54546875 19.94351563 -5.1484375 19.23828125 C-7.12659406 16.84696541 -9.06857805 14.42916725 -11 12 C-10.28972656 11.30132812 -9.57945312 10.60265625 -8.84765625 9.8828125 C-7.92855469 8.97273437 -7.00945312 8.06265625 -6.0625 7.125 C-4.68771484 5.76761719 -4.68771484 5.76761719 -3.28515625 4.3828125 C-0.98812373 2.22317745 -0.98812373 2.22317745 0 0 Z " fill="#101010" transform="translate(268,207)"/>
<path d="M0 0 C2 0 2 0 3.5859375 1.57421875 C4.17632812 2.27160156 4.76671875 2.96898437 5.375 3.6875 C6.25285156 4.71423828 6.25285156 4.71423828 7.1484375 5.76171875 C9.12659406 8.15303459 11.06857805 10.57083275 13 13 C12.28972656 13.69867188 11.57945312 14.39734375 10.84765625 15.1171875 C9.92855469 16.02726562 9.00945312 16.93734375 8.0625 17.875 C6.68771484 19.23238281 6.68771484 19.23238281 5.28515625 20.6171875 C2.98812373 22.77682255 2.98812373 22.77682255 2 25 C1.34 25 0.68 25 0 25 C0 16.75 0 8.5 0 0 Z " fill="#101010" transform="translate(145,207)"/>
<path d="M0 0 C0.33 0 0.66 0 1 0 C1 8.25 1 16.5 1 25 C-8.03225806 17.25806452 -8.03225806 17.25806452 -12 13 C-12 12.34 -12 11.68 -12 11 C-10.390625 9.4140625 -10.390625 9.4140625 -8.25 7.625 C-5.92929784 5.65753746 -3.71602164 3.71602164 -1.5625 1.5625 C-1.046875 1.046875 -0.53125 0.53125 0 0 Z " fill="#090909" transform="translate(224,384)"/>
<path d="M0 0 C2.31 1.98 4.62 3.96 7 6 C8.99702063 7.67023543 10.99599938 9.33814583 13 11 C11.41379873 14.87939509 8.90079013 17.33361087 5.9375 20.25 C5.03902344 21.14203125 4.14054688 22.0340625 3.21484375 22.953125 C1 25 1 25 0 25 C0 16.75 0 8.5 0 0 Z " fill="#090909" transform="translate(190,384)"/>
<path d="M0 0 C2 0 2 0 3.5859375 1.57421875 C4.17632812 2.27160156 4.76671875 2.96898437 5.375 3.6875 C6.25285156 4.71423828 6.25285156 4.71423828 7.1484375 5.76171875 C9.12659406 8.15303459 11.06857805 10.57083275 13 13 C11.0238076 15.00301854 9.04425526 17.00249867 7.0625 19 C6.49853516 19.57234375 5.93457031 20.1446875 5.35351562 20.734375 C3.92121224 22.17525505 2.46258871 23.58987143 1 25 C0.67 25 0.34 25 0 25 C0 16.75 0 8.5 0 0 Z " fill="#0D0D0D" transform="translate(333,207)"/>
<path d="M0 0 C0.33 0 0.66 0 1 0 C1 8.25 1 16.5 1 25 C-8.03225806 17.25806452 -8.03225806 17.25806452 -12 13 C-12 12.34 -12 11.68 -12 11 C-10.390625 9.4140625 -10.390625 9.4140625 -8.25 7.625 C-5.92929784 5.65753746 -3.71602164 3.71602164 -1.5625 1.5625 C-1.046875 1.046875 -0.53125 0.53125 0 0 Z " fill="#090909" transform="translate(412,150)"/>
<path d="M0 0 C0.33 0 0.66 0 1 0 C1 8.25 1 16.5 1 25 C-8.03225806 17.25806452 -8.03225806 17.25806452 -12 13 C-12 12.34 -12 11.68 -12 11 C-10.390625 9.4140625 -10.390625 9.4140625 -8.25 7.625 C-5.92929784 5.65753746 -3.71602164 3.71602164 -1.5625 1.5625 C-1.046875 1.046875 -0.53125 0.53125 0 0 Z " fill="#090909" transform="translate(224,150)"/>
<path d="M0 0 C2.31 1.98 4.62 3.96 7 6 C8.99702063 7.67023543 10.99599938 9.33814583 13 11 C11.41379873 14.87939509 8.90079013 17.33361087 5.9375 20.25 C5.03902344 21.14203125 4.14054688 22.0340625 3.21484375 22.953125 C1 25 1 25 0 25 C0 16.75 0 8.5 0 0 Z " fill="#080808" transform="translate(190,150)"/>
<path d="M0 0 C0 8.25 0 16.5 0 25 C-5.03219988 20.68668581 -8.91673535 16.97959104 -13 12 C-11.0238076 9.99698146 -9.04425526 7.99750133 -7.0625 6 C-6.49853516 5.42765625 -5.93457031 4.8553125 -5.35351562 4.265625 C-1.11328125 0 -1.11328125 0 0 0 Z " fill="#060606" transform="translate(413,326)"/>
<path d="M0 0 C5.03219988 4.31331419 8.91673535 8.02040896 13 13 C11.0238076 15.00301854 9.04425526 17.00249867 7.0625 19 C6.49853516 19.57234375 5.93457031 20.1446875 5.35351562 20.734375 C3.92121224 22.17525505 2.46258871 23.58987143 1 25 C0.67 25 0.34 25 0 25 C0 16.75 0 8.5 0 0 Z " fill="#070707" transform="translate(378,326)"/>
<path d="M0 0 C0 8.25 0 16.5 0 25 C-5.03219988 20.68668581 -8.91673535 16.97959104 -13 12 C-11.0238076 9.99698146 -9.04425526 7.99750133 -7.0625 6 C-6.49853516 5.42765625 -5.93457031 4.8553125 -5.35351562 4.265625 C-1.11328125 0 -1.11328125 0 0 0 Z " fill="#060606" transform="translate(225,326)"/>
<path d="M0 0 C5.03219988 4.31331419 8.91673535 8.02040896 13 13 C11.0238076 15.00301854 9.04425526 17.00249867 7.0625 19 C6.49853516 19.57234375 5.93457031 20.1446875 5.35351562 20.734375 C3.92121224 22.17525505 2.46258871 23.58987143 1 25 C0.67 25 0.34 25 0 25 C0 16.75 0 8.5 0 0 Z " fill="#050505" transform="translate(190,326)"/>
<path d="M0 0 C0 8.25 0 16.5 0 25 C-5.03219988 20.68668581 -8.91673535 16.97959104 -13 12 C-11.0238076 9.99698146 -9.04425526 7.99750133 -7.0625 6 C-6.49853516 5.42765625 -5.93457031 4.8553125 -5.35351562 4.265625 C-1.11328125 0 -1.11328125 0 0 0 Z " fill="#050505" transform="translate(413,207)"/>
<path d="M0 0 C5.03219988 4.31331419 8.91673535 8.02040896 13 13 C11.0238076 15.00301854 9.04425526 17.00249867 7.0625 19 C6.49853516 19.57234375 5.93457031 20.1446875 5.35351562 20.734375 C3.92121224 22.17525505 2.46258871 23.58987143 1 25 C0.67 25 0.34 25 0 25 C0 16.75 0 8.5 0 0 Z " fill="#060606" transform="translate(378,207)"/>
<path d="M0 0 C0 8.25 0 16.5 0 25 C-5.03219988 20.68668581 -8.91673535 16.97959104 -13 12 C-11.0238076 9.99698146 -9.04425526 7.99750133 -7.0625 6 C-6.49853516 5.42765625 -5.93457031 4.8553125 -5.35351562 4.265625 C-1.11328125 0 -1.11328125 0 0 0 Z " fill="#0A0A0A" transform="translate(324,207)"/>
<path d="M0 0 C0 8.25 0 16.5 0 25 C-5.03219988 20.68668581 -8.91673535 16.97959104 -13 12 C-11.0238076 9.99698146 -9.04425526 7.99750133 -7.0625 6 C-6.49853516 5.42765625 -5.93457031 4.8553125 -5.35351562 4.265625 C-1.11328125 0 -1.11328125 0 0 0 Z " fill="#050505" transform="translate(225,207)"/>
<path d="M0 0 C5.03219988 4.31331419 8.91673535 8.02040896 13 13 C11.0238076 15.00301854 9.04425526 17.00249867 7.0625 19 C6.49853516 19.57234375 5.93457031 20.1446875 5.35351562 20.734375 C3.92121224 22.17525505 2.46258871 23.58987143 1 25 C0.67 25 0.34 25 0 25 C0 16.75 0 8.5 0 0 Z " fill="#040404" transform="translate(190,207)"/>
<path d="M0 0 C9.83783784 8.43243243 9.83783784 8.43243243 12 11 C11.85460064 15.23475631 8.88389893 17.44803002 6 20.25 C5.0925 21.14203125 4.185 22.0340625 3.25 22.953125 C1 25 1 25 0 25 C0 16.75 0 8.5 0 0 Z " fill="#0A0A0A" transform="translate(289,207)"/>
<path d="M0 0 C9.83783784 8.43243243 9.83783784 8.43243243 12 11 C11.85460064 15.23475631 8.88389893 17.44803002 6 20.25 C5.0925 21.14203125 4.185 22.0340625 3.25 22.953125 C1 25 1 25 0 25 C0 16.75 0 8.5 0 0 Z " fill="#080808" transform="translate(378,150)"/>
<path d="M0 0 C3.5368805 1.76844025 5.53364147 3.18250454 8.3125 5.875 C9.38951172 6.89207031 9.38951172 6.89207031 10.48828125 7.9296875 C12 10 12 10 12.04296875 11.9296875 C10.53068043 14.93160813 8.40394274 16.91435109 6 19.25 C5.0925 20.14203125 4.185 21.0340625 3.25 21.953125 C1 24 1 24 0 24 C0 16.08 0 8.16 0 0 Z " fill="#0A0A0A" transform="translate(289,327)"/>
<path d="M0 0 C0 7.92 0 15.84 0 24 C-3.5368805 22.23155975 -5.53364147 20.81749546 -8.3125 18.125 C-9.03050781 17.44695312 -9.74851562 16.76890625 -10.48828125 16.0703125 C-12 14 -12 14 -12.04296875 12.0703125 C-10.53068043 9.06839187 -8.40394274 7.08564891 -6 4.75 C-5.0925 3.85796875 -4.185 2.9659375 -3.25 2.046875 C-1 0 -1 0 0 0 Z " fill="#0C0C0C" transform="translate(368,207)"/>
<path d="M0 0 C3.5368805 1.76844025 5.53364147 3.18250454 8.3125 5.875 C9.38951172 6.89207031 9.38951172 6.89207031 10.48828125 7.9296875 C12 10 12 10 12.0078125 11.9609375 C10.62869336 14.75124832 8.78268656 16.57599332 6.5625 18.75 C5.75941406 19.54921875 4.95632812 20.3484375 4.12890625 21.171875 C2 23 2 23 0 23 C0 15.41 0 7.82 0 0 Z " fill="#0D0D0D" transform="translate(235,208)"/>
<path d="M0 0 C0 7.59 0 15.18 0 23 C-3.5368805 21.23155975 -5.53364147 19.81749546 -8.3125 17.125 C-9.03050781 16.44695312 -9.74851563 15.76890625 -10.48828125 15.0703125 C-12 13 -12 13 -12.0078125 11.0390625 C-10.62869336 8.24875168 -8.78268656 6.42400668 -6.5625 4.25 C-5.75941406 3.45078125 -4.95632812 2.6515625 -4.12890625 1.828125 C-2 0 -2 0 0 0 Z " fill="#0E0E0E" transform="translate(180,208)"/>
<path d="M0 0 C0 7.92 0 15.84 0 24 C-4.22784833 20.37613 -8.15867097 16.95773294 -12 13 C-10.46563424 9.34435261 -8.25017578 7.01301377 -5.4375 4.25 C-4.63183594 3.45078125 -3.82617188 2.6515625 -2.99609375 1.828125 C-1 0 -1 0 0 0 Z " fill="#020202" transform="translate(368,384)"/>
<path d="M0 0 C4.22784833 3.62387 8.15867097 7.04226706 12 11 C10.46563424 14.65564739 8.25017578 16.98698623 5.4375 19.75 C4.63183594 20.54921875 3.82617188 21.3484375 2.99609375 22.171875 C1 24 1 24 0 24 C0 16.08 0 8.16 0 0 Z " fill="#010101" transform="translate(289,384)"/>
<path d="M0 0 C4.22784833 3.62387 8.15867097 7.04226706 12 11 C10.46563424 14.65564739 8.25017578 16.98698623 5.4375 19.75 C4.63183594 20.54921875 3.82617188 21.3484375 2.99609375 22.171875 C1 24 1 24 0 24 C0 16.08 0 8.16 0 0 Z " fill="#030303" transform="translate(235,384)"/>
<path d="M0 0 C0 7.92 0 15.84 0 24 C-4.22784833 20.37613 -8.15867097 16.95773294 -12 13 C-10.46563424 9.34435261 -8.25017578 7.01301377 -5.4375 4.25 C-4.63183594 3.45078125 -3.82617188 2.6515625 -2.99609375 1.828125 C-1 0 -1 0 0 0 Z " fill="#030303" transform="translate(180,384)"/>
<path d="M0 0 C4.22784833 3.62387 8.15867097 7.04226706 12 11 C10.46563424 14.65564739 8.25017578 16.98698623 5.4375 19.75 C4.63183594 20.54921875 3.82617188 21.3484375 2.99609375 22.171875 C1 24 1 24 0 24 C0 16.08 0 8.16 0 0 Z " fill="#000000" transform="translate(378,384)"/>
<path d="M0 0 C0 7.92 0 15.84 0 24 C-4.22784833 20.37613 -8.15867097 16.95773294 -12 13 C-10.46563424 9.34435261 -8.25017578 7.01301377 -5.4375 4.25 C-4.63183594 3.45078125 -3.82617188 2.6515625 -2.99609375 1.828125 C-1 0 -1 0 0 0 Z " fill="#030303" transform="translate(368,327)"/>
<path d="M0 0 C4.22784833 3.62387 8.15867097 7.04226706 12 11 C10.46563424 14.65564739 8.25017578 16.98698623 5.4375 19.75 C4.63183594 20.54921875 3.82617188 21.3484375 2.99609375 22.171875 C1 24 1 24 0 24 C0 16.08 0 8.16 0 0 Z " fill="#040404" transform="translate(235,327)"/>
<path d="M0 0 C0 7.92 0 15.84 0 24 C-4.22784833 20.37613 -8.15867097 16.95773294 -12 13 C-10.46563424 9.34435261 -8.25017578 7.01301377 -5.4375 4.25 C-4.63183594 3.45078125 -3.82617188 2.6515625 -2.99609375 1.828125 C-1 0 -1 0 0 0 Z " fill="#040404" transform="translate(180,327)"/>
<path d="M0 0 C0 7.92 0 15.84 0 24 C-4.22784833 20.37613 -8.15867097 16.95773294 -12 13 C-10.46563424 9.34435261 -8.25017578 7.01301377 -5.4375 4.25 C-4.63183594 3.45078125 -3.82617188 2.6515625 -2.99609375 1.828125 C-1 0 -1 0 0 0 Z " fill="#020202" transform="translate(368,150)"/>
<path d="M0 0 C4.22784833 3.62387 8.15867097 7.04226706 12 11 C10.46563424 14.65564739 8.25017578 16.98698623 5.4375 19.75 C4.63183594 20.54921875 3.82617188 21.3484375 2.99609375 22.171875 C1 24 1 24 0 24 C0 16.08 0 8.16 0 0 Z " fill="#010101" transform="translate(289,150)"/>
<path d="M0 0 C4.22784833 3.62387 8.15867097 7.04226706 12 11 C10.46563424 14.65564739 8.25017578 16.98698623 5.4375 19.75 C4.63183594 20.54921875 3.82617188 21.3484375 2.99609375 22.171875 C1 24 1 24 0 24 C0 16.08 0 8.16 0 0 Z " fill="#030303" transform="translate(235,150)"/>
<path d="M0 0 C0 7.92 0 15.84 0 24 C-4.22784833 20.37613 -8.15867097 16.95773294 -12 13 C-10.46563424 9.34435261 -8.25017578 7.01301377 -5.4375 4.25 C-4.63183594 3.45078125 -3.82617188 2.6515625 -2.99609375 1.828125 C-1 0 -1 0 0 0 Z " fill="#030303" transform="translate(180,150)"/>
<path d="M0 0 C2.0625 0.4375 2.0625 0.4375 4 1 C4 2.65 4 4.3 4 6 C2.125 6.625 2.125 6.625 0 7 C-0.66 6.34 -1.32 5.68 -2 5 C-1.46428571 1.46428571 -1.46428571 1.46428571 0 0 Z " fill="#232323" transform="translate(300,274)"/>
</svg>
